<?xml version="1.0" encoding="iso-8859-1"?>
<!-- Generator: Adobe Illustrator 19.0.0, SVG Export Plug-In . SVG Version: 6.00 Build 0)  -->
<svg version="1.1" id="Capa_1" xmlns="http://www.w3.org/2000/svg" xmlns:xlink="http://www.w3.org/1999/xlink" x="0px" y="0px"
	 viewBox="0 0 512 512" style="enable-background:new 0 0 512 512;" xml:space="preserve">
<g>
	<rect x="366.555" y="210.799" style="fill:#E5E5E5;" width="120.703" height="293.702"/>
	<rect x="24.737" y="210.799" style="fill:#E5E5E5;" width="120.703" height="293.702"/>
</g>
<g>
	<rect x="120.473" y="210.799" style="fill:#C4C4C4;" width="24.974" height="293.702"/>
	<rect x="462.284" y="210.799" style="fill:#C4C4C4;" width="24.974" height="293.702"/>
</g>
<polygon style="fill:#E5E5E5;" points="366.558,504.508 145.445,504.508 145.445,285.094 256.001,93.367 366.558,285.094 "/>
<polygon style="fill:#C4C4C4;" points="345.58,248.714 345.58,504.508 366.558,504.508 366.558,285.094 "/>
<g>
	<path style="fill:#6CC4FF;" d="M101.923,450.989H68.258v-76.637c0-1.442,1.17-2.612,2.612-2.612h28.44
		c1.442,0,2.612,1.17,2.612,2.612C101.923,374.352,101.923,450.989,101.923,450.989z"/>
	<path style="fill:#6CC4FF;" d="M101.923,328.867H68.258V252.23c0-1.442,1.17-2.612,2.612-2.612h28.44
		c1.442,0,2.612,1.17,2.612,2.612C101.923,252.23,101.923,328.867,101.923,328.867z"/>
	<path style="fill:#6CC4FF;" d="M443.74,450.989h-33.665v-76.637c0-1.442,1.17-2.612,2.612-2.612h28.44
		c1.442,0,2.612,1.17,2.612,2.612L443.74,450.989L443.74,450.989z"/>
	<path style="fill:#6CC4FF;" d="M443.74,328.867h-33.665V252.23c0-1.442,1.17-2.612,2.612-2.612h28.44
		c1.442,0,2.612,1.17,2.612,2.612L443.74,328.867L443.74,328.867z"/>
</g>
<path style="fill:#915050;" d="M299.02,504.508h-86.039v-98.033c0-23.759,19.261-43.019,43.019-43.019l0,0
	c23.759,0,43.019,19.261,43.019,43.019v98.033H299.02z"/>
<path style="fill:#6CC4FF;" d="M279.681,312.934h-47.359v-56.495c0-13.078,10.602-23.679,23.679-23.679l0,0
	c13.077,0,23.679,10.602,23.679,23.679L279.681,312.934L279.681,312.934z"/>
<polygon style="fill:#ED1856;" points="145.445,210.801 24.737,210.801 85.091,55.421 "/>
<polygon style="fill:#D61857;" points="85.091,55.421 72.604,87.568 120.472,210.801 145.445,210.801 "/>
<polygon style="fill:#ED1856;" points="487.261,210.801 366.554,210.801 426.907,55.421 "/>
<polygon style="fill:#D61857;" points="426.907,55.421 414.42,87.568 462.287,210.801 487.261,210.801 "/>
<path style="fill:#BF7D5A;" d="M256.414,363.466v141.042h42.606v-98.033C299.02,382.854,279.981,363.689,256.414,363.466z"/>
<path d="M256.001,225.267c-17.188,0-31.171,13.984-31.171,31.172v56.495c0,4.138,3.354,7.492,7.492,7.492h47.358
	c4.139,0,7.492-3.354,7.492-7.492v-56.495C287.173,239.25,273.189,225.267,256.001,225.267z M272.189,305.442h-32.374v-49.003
	c0-8.926,7.262-16.188,16.188-16.188c8.926,0,16.187,7.262,16.187,16.188v49.003H272.189z"/>
<path d="M99.311,364.248h-28.44c-5.571,0-10.104,4.533-10.104,10.104v76.637c0,4.138,3.354,7.492,7.492,7.492h33.665
	c4.138,0,7.492-3.354,7.492-7.492v-76.637C109.415,368.781,104.883,364.248,99.311,364.248z M94.431,443.497h-18.68v-64.265h18.68
	C94.431,379.232,94.431,443.497,94.431,443.497z"/>
<path d="M99.311,242.126h-28.44c-5.571,0-10.104,4.533-10.104,10.104v76.637c0,4.138,3.354,7.492,7.492,7.492h33.665
	c4.138,0,7.492-3.354,7.492-7.492V252.23C109.415,246.659,104.883,242.126,99.311,242.126z M94.431,321.375h-18.68V257.11h18.68
	C94.431,257.11,94.431,321.375,94.431,321.375z"/>
<path d="M494.752,210.78c0-0.05-0.007-0.1-0.008-0.15c-0.005-0.236-0.019-0.469-0.046-0.698c-0.01-0.082-0.025-0.163-0.037-0.245
	c-0.031-0.206-0.068-0.408-0.115-0.607c-0.019-0.08-0.04-0.16-0.062-0.24c-0.058-0.213-0.125-0.421-0.2-0.625
	c-0.015-0.042-0.024-0.085-0.04-0.126L434.399,54.017V7.492c0-4.138-3.353-7.492-7.492-7.492s-7.492,3.354-7.492,7.492v46.525
	l-30.082,77.449c-1.498,3.857,0.415,8.197,4.271,9.696c3.857,1.499,8.198-0.414,9.697-4.272l23.607-60.777l49.406,127.196h-98.812
	l14.948-38.484c1.498-3.857-0.415-8.197-4.271-9.696c-3.856-1.497-8.198,0.414-9.697,4.272l-18.912,48.688
	c-0.016,0.042-0.025,0.085-0.041,0.127c-0.075,0.204-0.142,0.413-0.2,0.624c-0.022,0.08-0.043,0.16-0.062,0.24
	c-0.047,0.2-0.084,0.402-0.115,0.607c-0.012,0.082-0.028,0.163-0.037,0.245c-0.027,0.23-0.04,0.463-0.046,0.698
	c-0.001,0.05-0.007,0.1-0.007,0.15c0,0.007-0.001,0.014-0.001,0.022v46.293L263.495,91.361V54.5h17.986
	c4.139,0,7.492-3.354,7.492-7.492s-3.353-7.492-7.492-7.492h-17.986v-21.91c0-4.138-3.354-7.492-7.493-7.492
	c-4.138,0-7.492,3.354-7.492,7.492v21.91h-17.987c-4.138,0-7.492,3.354-7.492,7.492s3.354,7.492,7.492,7.492h17.987v36.862
	l-95.573,165.742v-46.302c0-0.008-0.001-0.015-0.001-0.022c0-0.048-0.006-0.097-0.007-0.145c-0.005-0.238-0.019-0.473-0.046-0.704
	c-0.009-0.081-0.025-0.161-0.037-0.241c-0.031-0.206-0.068-0.41-0.116-0.61c-0.019-0.08-0.04-0.159-0.061-0.238
	c-0.057-0.212-0.124-0.42-0.199-0.624c-0.016-0.042-0.025-0.086-0.041-0.128L92.583,54.017V7.492C92.583,3.354,89.228,0,85.091,0
	c-4.138,0-7.492,3.354-7.492,7.492v46.525l-30.082,77.449c-1.498,3.857,0.415,8.197,4.272,9.696
	c3.856,1.497,8.197-0.415,9.696-4.272l23.607-60.777l49.406,127.196H35.685l14.948-38.484c1.498-3.857-0.415-8.197-4.272-9.696
	c-3.858-1.499-8.197,0.414-9.696,4.272l-18.912,48.688c-0.016,0.042-0.025,0.086-0.041,0.128c-0.075,0.204-0.142,0.412-0.2,0.624
	c-0.021,0.079-0.042,0.159-0.061,0.238c-0.047,0.201-0.085,0.406-0.116,0.612c-0.012,0.08-0.027,0.159-0.036,0.239
	c-0.027,0.232-0.041,0.468-0.046,0.705c-0.001,0.048-0.007,0.096-0.007,0.144c0,0.008-0.001,0.015-0.001,0.022v293.707
	c0,4.138,3.354,7.492,7.492,7.492h120.707h67.537h86.039h67.533h0.005h120.702c4.139,0,7.492-3.354,7.492-7.492V210.802
	C494.753,210.794,494.752,210.787,494.752,210.78z M32.229,218.294h105.723v66.801v211.922H32.229V218.294z M263.494,497.016V371.75
	c16.003,3.449,28.035,17.705,28.035,34.725v90.541H263.494z M479.769,497.016H374.051V361.846c0-4.138-3.353-7.492-7.492-7.492
	c-0.001,0-0.002,0-0.003,0c-0.001,0-0.002,0-0.002,0c-4.139,0-7.492,3.354-7.492,7.492v135.169h-52.549v-90.541
	c0-27.852-22.66-50.511-50.512-50.511c-27.852,0-50.511,22.659-50.511,50.511v22.21c0,4.138,3.354,7.492,7.492,7.492
	s7.492-3.354,7.492-7.492v-22.21c0-17.019,12.032-31.275,28.035-34.725v125.266h-28.035v-38.363c0-4.138-3.354-7.492-7.492-7.492
	s-7.492,3.354-7.492,7.492v38.363h-52.553V287.1l103.065-178.735l103.06,178.726v44.787c0,4.138,3.353,7.492,7.492,7.492
	c0.26,0,0.515-0.013,0.768-0.039c3.779-0.383,6.729-3.573,6.729-7.453v-46.784c0-0.025-0.005-0.049-0.005-0.074v-66.727h105.723
	V497.016z"/>
<path d="M410.075,458.481h33.665c4.139,0,7.492-3.354,7.492-7.492v-76.637c0-5.572-4.533-10.104-10.104-10.104h-28.44
	c-5.571,0-10.104,4.533-10.104,10.104v76.637C402.583,455.127,405.936,458.481,410.075,458.481z M417.567,379.232h18.68v64.265
	h-18.68V379.232z"/>
<path d="M410.075,336.359h33.665c4.139,0,7.492-3.354,7.492-7.492V252.23c0-5.572-4.533-10.104-10.104-10.104h-28.44
	c-5.571,0-10.104,4.533-10.104,10.104v76.637C402.583,333.005,405.936,336.359,410.075,336.359z M417.567,257.11h18.68v64.265
	h-18.68V257.11z"/>
<g>
</g>
<g>
</g>
<g>
</g>
<g>
</g>
<g>
</g>
<g>
</g>
<g>
</g>
<g>
</g>
<g>
</g>
<g>
</g>
<g>
</g>
<g>
</g>
<g>
</g>
<g>
</g>
<g>
</g>
</svg>
